<svg xmlns="http://www.w3.org/2000/svg" viewBox="0 0 25.51 25.51"><defs><style>.cls-1{fill:#fff;}</style></defs><g id="Layer_2" data-name="Layer 2"><g id="Layer_1-2" data-name="Layer 1"><circle cx="12.76" cy="12.76" r="12.76"/><path class="cls-1" d="M12.79,19.72H6a1.57,1.57,0,0,1-1.59-1.58V9.75A1.46,1.46,0,0,1,5.63,8.28a1.14,1.14,0,0,1,.26,0H9.32A.37.37,0,0,0,9.68,8c.25-.44.49-.88.74-1.31a.91.91,0,0,1,.79-.48c.93,0,1.85,0,2.77,0a4,4,0,0,1,.6,0,1,1,0,0,1,.7.5L16,8l.08.13a.3.3,0,0,0,.28.15h3.4A1.47,1.47,0,0,1,21.09,9.3a1.74,1.74,0,0,1,.06.45v8.34a1.61,1.61,0,0,1-.43,1.16,1.46,1.46,0,0,1-1.08.47Zm-.2-.43h.5a4.19,4.19,0,0,0,1.06-.17,5.08,5.08,0,0,0,3-2.23A4.92,4.92,0,0,0,18,14.47c0-.06,0-.35,0-.53a4.62,4.62,0,0,0-.42-1.83,5.21,5.21,0,0,0-3.16-2.92A4.38,4.38,0,0,0,13.09,9h-.51a4.08,4.08,0,0,0-.92.13,5.2,5.2,0,0,0-3.57,3.1A4.81,4.81,0,0,0,7.7,14v.24c0,.08,0,.18,0,.29a2.83,2.83,0,0,0,.09.65,5.4,5.4,0,0,0,1.56,2.75,5.63,5.63,0,0,0,1,.75,4.48,4.48,0,0,0,1.08.45,4.83,4.83,0,0,0,1.14.17m6.5-9.73h-.71c-.16,0-.23.06-.23.22V11a.17.17,0,0,0,.18.19H19.8c.17,0,.24-.06.24-.19V9.78c0-.15-.07-.22-.23-.22ZM6.36,10.92H7a.36.36,0,0,0,.37-.37c0-.14,0-.28,0-.42A.4.4,0,0,0,7,9.72H5.73a.35.35,0,0,0-.36.37c0,.15,0,.3,0,.45a.37.37,0,0,0,.35.37Z"/><path class="cls-1" d="M18.31,7.92h-.95c-.27,0-.4-.21-.27-.46a.36.36,0,0,1,.34-.19H19.2a.39.39,0,0,1,.38.42.24.24,0,0,1-.26.24Z"/><path class="cls-1" d="M18.57,6.23h.2a.11.11,0,0,1,.12.11v.41a.12.12,0,0,1-.13.12h-.39c-.09,0-.13,0-.13-.14a2.28,2.28,0,0,1,0-.37.12.12,0,0,1,.14-.13Z"/><path class="cls-1" d="M20.15,6.47h.17c.1,0,.14,0,.14.14a1.82,1.82,0,0,1,0,.33c0,.09,0,.14-.13.14H20c-.09,0-.13,0-.13-.14V6.59A.11.11,0,0,1,20,6.47Z"/><path class="cls-1" d="M20.79,7.45c.19,0,.19,0,.2.2s0,.2-.21.2-.2,0-.2-.19S20.58,7.45,20.79,7.45Z"/><path class="cls-1" d="M19.64,6c0,.21,0,.21-.2.21s-.2,0-.2-.2,0-.2.2-.2h0C19.64,5.79,19.64,5.79,19.64,6Z"/><path class="cls-1" d="M12.85,18.87a4.57,4.57,0,0,1-3.58-1.69,4.86,4.86,0,0,1-1.13-2.59,3.8,3.8,0,0,1,0-.67,4.89,4.89,0,0,1,1.53-3.26,4.59,4.59,0,0,1,2.45-1.23,4.39,4.39,0,0,1,3.23.7,4.83,4.83,0,0,1,2.13,3.19c0,.22.06.44.08.66a4.17,4.17,0,0,1,0,.5,4.91,4.91,0,0,1-1.46,3.05,4.54,4.54,0,0,1-2.27,1.24A4,4,0,0,1,12.85,18.87Zm4-4.71A4.13,4.13,0,0,0,12.83,10a4.11,4.11,0,1,0,4.07,4.13Z"/><path class="cls-1" d="M6.35,10.55H5.82c-.06,0-.08,0-.08-.08v-.31c0-.05,0-.06.06-.06h1c.09,0,.13,0,.11.13a2.08,2.08,0,0,0,0,.25c0,.06,0,.08-.08.08s-.36,0-.53,0Z"/><path class="cls-1" d="M14.34,16a1.91,1.91,0,0,1-.67.79,1.58,1.58,0,0,1-.59.23C13,17,13,17,13,16.94c0-1.1,0-2.2,0-3.3a.85.85,0,0,0,0-.16.17.17,0,0,0-.16-.16.16.16,0,0,0-.16.16c0,.16,0,.33,0,.5v2.91c0,.15,0,.15-.15.11a1.77,1.77,0,0,1-1.21-1,.19.19,0,0,0-.12.21c0,.16,0,.32,0,.48a.19.19,0,0,0,.07.15,3,3,0,0,1,.24.26.16.16,0,0,1,0,.25.16.16,0,0,1-.24,0,3,3,0,0,1-.4-.47.17.17,0,0,1,0-.1c0-.24,0-.48,0-.72a.19.19,0,0,1,.07-.16l.26-.28a.1.1,0,0,0,0-.1,2.74,2.74,0,0,1,0-1H10.6c-.06,0-.06,0-.06.07v.38a.18.18,0,0,1-.06.16l-.57.46a.16.16,0,0,1-.24,0,.17.17,0,0,1,0-.24l.41-.32a.16.16,0,0,0,.07-.14v-.38a.16.16,0,0,1,.08-.16.68.68,0,0,1,.51-.17c.14,0,.28,0,.42,0a.08.08,0,0,0,.09-.06.74.74,0,0,1,.11-.24c0-.05,0-.08,0-.12l-.45-.36a.23.23,0,0,1-.09-.19c0-.26,0-.52,0-.78a.2.2,0,0,0-.08-.17c-.13-.09-.25-.2-.37-.3a.16.16,0,0,1-.06-.19.2.2,0,0,1,.15-.13.24.24,0,0,1,.16,0l.49.41a.24.24,0,0,1,.07.18c0,.26,0,.52,0,.79a.15.15,0,0,0,.05.12l.35.28a.05.05,0,0,0,.08,0,1.45,1.45,0,0,1,.18-.16.11.11,0,0,0,0-.12,1,1,0,0,1,.26-1s0-.07,0-.1l-.43-.36a.18.18,0,0,1,.1-.34.14.14,0,0,1,.13,0,5.78,5.78,0,0,1,.58.53s0,0,.07,0a1.42,1.42,0,0,1,.58,0s0,0,.06,0a7.55,7.55,0,0,1,.59-.54.19.19,0,0,1,.26,0,.16.16,0,0,1,0,.24l-.44.37c-.06.05-.07.08,0,.15a1,1,0,0,1,.22.95.09.09,0,0,0,0,.11c.07.06.14.17.22.19s.14-.11.22-.16a.37.37,0,0,0,.2-.4c0-.22,0-.44,0-.66a.19.19,0,0,1,.07-.16l.46-.39c.11-.09.21-.09.29,0s.05.18-.06.27a3.92,3.92,0,0,1-.32.25.19.19,0,0,0-.08.18v.76a.28.28,0,0,1-.1.23l-.43.35s-.06.06,0,.1a.47.47,0,0,1,.09.17c0,.13.11.16.23.15h.5c.16,0,.27.12.39.22s0,0,0,.08,0,.27,0,.4a.14.14,0,0,0,.07.13l.38.3c.12.09.14.19.07.28a.2.2,0,0,1-.29,0l-.5-.41a.2.2,0,0,1-.09-.2v-.38s0-.08-.07-.07h-.46c-.06,0-.08,0-.07.07a2.49,2.49,0,0,1,0,1c0,.05,0,.09.06.12l.22.22a.22.22,0,0,1,.08.19c0,.24,0,.48,0,.72a.21.21,0,0,1,0,.11l-.35.42a.18.18,0,0,1-.28,0,.19.19,0,0,1,0-.28.66.66,0,0,1,.14-.15.35.35,0,0,0,.14-.34,1.82,1.82,0,0,1,0-.33A.19.19,0,0,0,14.34,16Z"/></g></g></svg>